<?xml version="1.0" encoding="UTF-8" standalone="no"?>
<!DOCTYPE svg PUBLIC "-//W3C//DTD SVG 1.1//EN" "http://www.w3.org/Graphics/SVG/1.1/DTD/svg11.dtd">
<svg width="100%" height="100%" viewBox="0 0 67 67" version="1.1" xmlns="http://www.w3.org/2000/svg" xmlns:xlink="http://www.w3.org/1999/xlink" xml:space="preserve" xmlns:serif="http://www.serif.com/" style="fill-rule:evenodd;clip-rule:evenodd;stroke-linejoin:round;stroke-miterlimit:2;">
    <g transform="matrix(0.432988,0,0,1,0,0)">
        <g transform="matrix(2.31093,0,0,1,-200.126,0)">
            <path d="M119.63,51.4C109.5,51.4 101.26,43.16 101.26,33.03C101.26,22.9 109.5,14.66 119.63,14.66C125.02,14.66 130.12,17.01 133.62,21.12L130.36,23.89C127.68,20.74 123.76,18.93 119.63,18.93C111.86,18.93 105.54,25.25 105.54,33.02C105.54,40.79 111.86,47.11 119.63,47.11C126.83,47.11 132.79,41.68 133.62,34.69L115.07,38.9L114.12,34.73L137.8,29.36L137.95,31.87C137.97,32.25 137.99,32.64 137.99,33.02C137.99,43.15 129.75,51.39 119.62,51.39L119.63,51.4Z" style="fill:rgb(10,78,68);fill-rule:nonzero;"/>
        </g>
        <g transform="matrix(2.31093,0,0,1,-200.126,0)">
            <path d="M119.63,66.06C101.42,66.06 86.6,51.24 86.6,33.03C86.6,14.82 101.41,0 119.63,0C137.85,0 152.66,14.82 152.66,33.03C152.66,51.24 137.84,66.06 119.63,66.06ZM119.63,3.62C103.41,3.62 90.22,16.81 90.22,33.03C90.22,49.25 103.41,62.44 119.63,62.44C135.85,62.44 149.04,49.25 149.04,33.03C149.04,16.81 135.85,3.62 119.63,3.62Z" style="fill:rgb(10,78,68);fill-rule:nonzero;"/>
        </g>
    </g>
</svg>
